<svg class="svg-icon" style="width: 1em; height: 1em;vertical-align: middle;fill: currentColor;overflow: hidden;" viewBox="0 0 1024 1024" version="1.1" xmlns="http://www.w3.org/2000/svg"><path d="M853.333333 170.666667H170.666667L142.222222 56.888889h739.555556zM199.111111 227.555556v739.555555h256v-170.666667h113.777778v170.666667h256V227.555556H199.111111z m199.111111 512h-113.777778v-113.777778h113.777778v113.777778z m0-170.666667h-113.777778v-113.777778h113.777778v113.777778z m0-170.666667h-113.777778v-113.777778h113.777778v113.777778z m170.666667 341.333334h-113.777778v-113.777778h113.777778v113.777778z m0-170.666667h-113.777778v-113.777778h113.777778v113.777778z m0-170.666667h-113.777778v-113.777778h113.777778v113.777778z m170.666667 341.333334h-113.777778v-113.777778h113.777778v113.777778z m0-170.666667h-113.777778v-113.777778h113.777778v113.777778z m0-170.666667h-113.777778v-113.777778h113.777778v113.777778z" fill="" /></svg>